Coordinates
version=1
nRows=6
nColumns=63
inDegrees=yes

Units are S.I. units (second, meters, Newtons, ...)
If the header above contains a line with 'inDegrees', this indicates whether rotational values are in degrees (yes) or radians (no).

endheader
time	pelvis_tilt	pelvis_list	pelvis_rotation	pelvis_tx	pelvis_ty	pelvis_tz	hip_flexion_r	hip_adduction_r	hip_rotation_r	knee_angle_r	knee_angle_r_beta	ankle_angle_r	subtalar_angle_r	mtp_angle_r	hip_flexion_l	hip_adduction_l	hip_rotation_l	knee_angle_l	knee_angle_l_beta	ankle_angle_l	subtalar_angle_l	mtp_angle_l	L5_S1_Flex_Ext	L5_S1_Lat_Bending	L5_S1_axial_rotation	L4_L5_Flex_Ext	L4_L5_Lat_Bending	L4_L5_axial_rotation	L3_L4_Flex_Ext	L3_L4_Lat_Bending	L3_L4_axial_rotation	L2_L3_Flex_Ext	L2_L3_Lat_Bending	L2_L3_axial_rotation	L1_L2_Flex_Ext	L1_L2_Lat_Bending	L1_L2_axial_rotation	L1_T12_Flex_Ext	L1_T12_Lat_Bending	L1_T12_axial_rotation	Abs_r3	Abs_r2	Abs_r1	Abs_t1	Abs_t2	neck_flexion	neck_bending	neck_rotation	arm_flex_r	arm_add_r	arm_rot_r	elbow_flex_r	pro_sup_r	wrist_flex_r	wrist_dev_r	arm_flex_l	arm_add_l	arm_rot_l	elbow_flex_l	pro_sup_l	wrist_flex_l	wrist_dev_l
0.000000	-0.198459	-2.588003	85.165974	0.184319	0.976927	0.507579	4.488534	0.483220	-2.592766	5.256016	0.091735	21.264296	1.555501	0.000000	5.185597	-0.138853	-9.631960	5.104681	0.089093	25.270420	9.528724	0.000000	0.290564	0.042370	1.332690	0.539606	0.056353	1.415983	0.477368	0.103019	1.415983	0.332086	0.103019	1.166104	0.269818	0.086402	1.082811	0.166028	0.065632	0.999518	2.075470	0.479302	7.412023	0.000000	0.000000	26.995729	1.617560	-1.799611	4.341433	-8.499702	38.521485	46.054549	70.985154	7.373703	10.820698	17.435451	-5.638745	69.827762	40.924754	62.414270	2.057245	-0.586374
0.016949	-0.156028	-2.744139	86.215249	0.183182	0.976354	0.509841	4.745384	0.480487	-3.468366	5.316126	0.092784	21.325599	1.164771	0.000000	5.966872	-0.092563	-7.245231	5.830534	0.101762	24.809169	7.514186	0.000000	0.274685	0.037390	1.297062	0.510117	0.049729	1.378128	0.451279	0.090911	1.378128	0.313937	0.090911	1.134929	0.255072	0.076247	1.053863	0.156955	0.057918	0.972797	1.962045	0.422968	7.213870	0.000000	0.000000	27.062971	2.391191	-0.691999	4.176042	-8.249336	36.459460	46.449784	69.198791	7.326344	12.301444	18.896168	-5.543390	71.917644	40.648662	62.759462	2.207285	-1.411586
0.033898	-0.113993	-2.864475	87.034635	0.182336	0.975841	0.511652	4.944232	0.491079	-4.130475	5.360253	0.093554	21.394650	0.854686	0.000000	6.578467	-0.074194	-5.468250	6.408079	0.111842	24.474344	6.026600	0.000000	0.260603	0.033037	1.286660	0.483966	0.043939	1.367076	0.428145	0.080326	1.367076	0.297843	0.080326	1.125827	0.241996	0.067369	1.045411	0.148909	0.051174	0.964995	1.861463	0.373719	7.156015	0.000000	0.000000	27.126152	2.989930	0.129689	4.013520	-8.055257	34.759863	46.784901	67.936279	7.246305	13.336648	20.033330	-5.461317	73.377983	40.474152	63.389882	2.425020	-1.964483
0.050847	-0.071551	-2.951449	87.645976	0.181751	0.975384	0.513055	5.089559	0.514300	-4.599933	5.390055	0.094074	21.469480	0.616301	0.000000	7.035276	-0.081537	-4.240464	6.850671	0.119567	24.254281	5.015607	0.000000	0.248215	0.029504	1.297957	0.460960	0.039240	1.379079	0.407792	0.071736	1.379079	0.283685	0.071736	1.135712	0.230492	0.060165	1.054590	0.141830	0.045702	0.973467	1.772974	0.333756	7.218845	0.000000	0.000000	27.182386	3.427905	0.692175	3.856327	-7.912613	33.394105	47.063796	67.136850	7.139528	13.977187	20.881866	-5.390012	74.288346	40.385435	64.249258	2.700971	-2.279087
0.067797	-0.027897	-3.007504	88.071118	0.181397	0.974983	0.514094	5.185848	0.549453	-4.897578	5.407188	0.094373	21.548121	0.440671	0.000000	7.352196	-0.112377	-3.501316	7.171665	0.125169	24.137316	4.430849	0.000000	0.237414	0.026987	1.327426	0.440902	0.035893	1.410390	0.390048	0.065616	1.410390	0.271341	0.065616	1.161498	0.220463	0.055032	1.078533	0.135659	0.041803	0.995569	1.695827	0.305283	7.382744	0.000000	0.000000	27.228786	3.719244	1.022184	3.706925	-7.816554	32.333596	47.290361	66.739738	7.011952	14.273937	21.476705	-5.326964	74.728298	40.366723	65.281319	3.025659	-2.389418
0.084746	0.017773	-3.035078	88.331906	0.181242	0.974633	0.514810	5.237584	0.595843	-5.044249	5.413308	0.094480	21.628603	0.318851	0.000000	7.544119	-0.164505	-3.190252	7.384416	0.128882	24.111787	4.221967	0.000000	0.228097	0.025680	1.371541	0.423599	0.034155	1.457262	0.374740	0.062439	1.457262	0.260692	0.062439	1.200098	0.211811	0.052367	1.114377	0.130335	0.039779	1.028656	1.629273	0.290500	7.628098	0.000000	0.000000	27.262467	3.878075	1.146437	3.567775	-7.762230	31.549749	47.468491	66.684173	6.869521	14.277774	21.852777	-5.269662	74.777405	40.402227	66.429791	3.389603	-2.329495
